<svg width="18" height="19" viewBox="0 0 18 19" fill="none" xmlns="http://www.w3.org/2000/svg">
<path d="M2.45763 17.8602C2.51857 18.5202 3.06711 19.0002 3.73754 19.0002H14.2612C14.9317 19.0002 15.4802 18.5002 15.5411 17.8602L16.7195 5.7002H1.2793L2.45763 17.8602Z" fill="white"/>
<path d="M16.7201 1.9H11.5801V1.26C11.5801 0.560001 11.0113 0 10.3002 0H7.72009C7.00903 0 6.44018 0.560001 6.44018 1.26V1.9H1.27991C0.568849 1.9 0 2.46 0 3.16C0 3.86001 0.568849 4.42001 1.27991 4.42001H16.7201C17.4312 4.42001 18 3.86001 18 3.16C18 2.46 17.4312 1.9 16.7201 1.9Z" fill="white"/>
</svg>
